<?xml version="1.0" standalone="no"?>
<!DOCTYPE svg PUBLIC "-//W3C//DTD SVG 20010904//EN"
 "http://www.w3.org/TR/2001/REC-SVG-20010904/DTD/svg10.dtd">
<svg version="1.0" xmlns="http://www.w3.org/2000/svg"
 width="16.000000pt" height="16.000000pt" viewBox="0 0 16.000000 16.000000"
 preserveAspectRatio="xMidYMid meet">
<metadata>
Created by potrace 1.11, written by Peter Selinger 2001-2013
</metadata>
<g transform="translate(0.000000,16.000000) scale(0.005861,-0.005861)"
fill="#000000" stroke="none">
<path d="M374 2710 c-64 -30 -116 -91 -130 -153 -7 -30 -7 -1348 0 -1422 3
-33 8 -71 11 -85 3 -14 9 -48 14 -76 13 -67 45 -163 86 -250 l32 -71 -142
-144 c-78 -79 -150 -159 -159 -176 -82 -160 53 -354 230 -329 68 9 104 35 258
188 76 77 141 137 145 135 94 -51 218 -97 336 -123 121 -27 457 -29 585 -4
127 24 261 72 361 127 3 2 71 -61 151 -141 80 -79 160 -151 177 -161 158 -81
352 55 327 232 -9 70 -42 116 -190 261 l-136 134 35 72 c60 124 84 213 111
411 7 49 7 1392 0 1422 -23 102 -122 174 -233 169 -91 -4 -157 -50 -196 -135
-16 -37 -19 -66 -19 -187 l0 -143 -77 38 c-117 59 -217 90 -341 107 -25 3 -54
8 -65 10 -33 7 -326 6 -380 -1 -153 -20 -280 -57 -397 -116 l-78 -39 1 144 c1
122 -2 151 -19 187 -21 49 -62 93 -106 116 -46 24 -143 25 -192 3z m1222 -763
c200 -43 343 -175 399 -366 52 -175 38 -485 -28 -641 -47 -110 -159 -213 -282
-259 -138 -52 -424 -62 -579 -22 -213 56 -344 193 -392 410 -19 82 -24 309
-11 413 37 274 216 444 507 481 68 8 322 -2 386 -16z"/>
<path d="M1291 1549 c-120 -22 -182 -106 -183 -246 -1 -170 82 -255 252 -255
169 0 251 82 253 253 0 68 -4 87 -29 136 -25 49 -38 62 -84 85 -60 30 -137 40
-209 27z"/>
</g>
</svg>
